<?xml version="1.0" encoding="utf-8"?>
<!-- Generator: Adobe Illustrator 22.1.0, SVG Export Plug-In . SVG Version: 6.00 Build 0)  -->
<svg version="1.1" id="Calque_1" xmlns="http://www.w3.org/2000/svg" xmlns:xlink="http://www.w3.org/1999/xlink" x="0px" y="0px"
	 viewBox="0 0 835.2 324" style="enable-background:new 0 0 835.2 324;" xml:space="preserve">
<style type="text/css">
	.st0{fill:url(#XMLID_2_);}
	.st1{fill:#1C355E;}
	.st2{fill:#5E7775;}
</style>
<g id="XMLID_329_">
	
		<linearGradient id="XMLID_2_" gradientUnits="userSpaceOnUse" x1="57.1872" y1="162.9143" x2="290.5872" y2="162.9143" gradientTransform="matrix(1 0 0 -1 0 325.8191)">
		<stop  offset="0" style="stop-color:#E5004B"/>
		<stop  offset="0.9913" style="stop-color:#A21A6D"/>
	</linearGradient>
	<path id="XMLID_333_" class="st0" d="M203.2,192.3c-9,3.8-18.9,5.9-29.3,5.9s-20.3-2.1-29.3-5.9c-3.8-9-5.9-18.9-5.9-29.3
		c0-10.4,2.1-20.3,5.9-29.3c9-3.8,18.9-5.9,29.3-5.9c10.4,0,20.3,2.1,29.3,5.9c3.8,9,5.9,18.9,5.9,29.3
		C209.1,173.3,207,183.2,203.2,192.3z M152.5,206.5c5.7,8.1,13,15.1,21.4,20.4c8.4-5.4,15.7-12.3,21.4-20.4
		c-6.8,1.7-14,2.7-21.4,2.7S159.3,208.2,152.5,206.5z M173.9,98.9c-8.4,5.4-15.7,12.3-21.4,20.4c6.8-1.7,14-2.7,21.4-2.7
		s14.6,0.9,21.4,2.7C189.6,111.2,182.3,104.3,173.9,98.9z M136.2,125.3c6.2-12.8,15.4-23.8,26.7-32.2c-9.1-3.9-19.2-6.1-29.8-6.1
		c-10.4,0-20.3,2.1-29.3,5.9c-3.8,9-5.9,18.9-5.9,29.3c0,10.6,2.2,20.6,6.1,29.8C112.4,140.7,123.4,131.5,136.2,125.3z M173.9,86.1
		c12.2-6.5,26-10.2,40.7-10.2c7.4,0,14.6,0.9,21.4,2.7c-13.8-19.6-36.5-32.4-62.1-32.4c-25.7,0-48.4,12.8-62.1,32.4
		c6.8-1.7,14-2.7,21.4-2.7C147.9,76,161.7,79.7,173.9,86.1z M109.9,162.9c5.4,8.4,12.3,15.7,20.4,21.4c-1.7-6.8-2.7-14-2.7-21.4
		s0.9-14.6,2.7-21.4C122.2,147.3,115.2,154.5,109.9,162.9z M214.6,87c-10.6,0-20.6,2.2-29.8,6.1c11.3,8.4,20.5,19.4,26.7,32.2
		c12.8,6.2,23.8,15.4,32.2,26.7c3.9-9.1,6.1-19.2,6.1-29.8c0-10.4-2.1-20.3-5.9-29.3C234.9,89.1,225,87,214.6,87z M89.6,100.8
		c-19.6,13.8-32.4,36.5-32.4,62.1c0,25.7,12.8,48.4,32.4,62.1c-1.7-6.8-2.7-14-2.7-21.4c0-14.7,3.7-28.6,10.2-40.7
		c-6.5-12.2-10.2-26-10.2-40.7C86.9,114.8,87.9,107.7,89.6,100.8z M258.2,100.8c1.7,6.8,2.7,14,2.7,21.4c0,14.7-3.7,28.6-10.2,40.7
		c6.5,12.2,10.2,26,10.2,40.7c0,7.4-0.9,14.6-2.7,21.4c19.6-13.8,32.4-36.5,32.4-62.1S277.7,114.6,258.2,100.8z M237.9,162.9
		c-5.4-8.4-12.3-15.7-20.4-21.4c1.7,6.8,2.7,14,2.7,21.4s-0.9,14.6-2.7,21.4C225.6,178.6,232.5,171.3,237.9,162.9z M162.9,232.8
		c-11.3-8.4-20.5-19.4-26.7-32.2c-12.8-6.2-23.8-15.4-32.2-26.7c-3.9,9.1-6.1,19.2-6.1,29.8c0,10.4,2.1,20.3,5.9,29.3
		c9,3.8,18.9,5.9,29.3,5.9C143.7,238.9,153.8,236.7,162.9,232.8z M173.9,239.7c-12.2,6.5-26,10.2-40.7,10.2
		c-7.4,0-14.6-0.9-21.4-2.7c13.8,19.6,36.5,32.4,62.1,32.4c25.7,0,48.4-12.8,62.1-32.4c-6.8,1.7-14,2.7-21.4,2.7
		C199.9,249.9,186,246.2,173.9,239.7z M211.5,200.6c-6.2,12.8-15.4,23.8-26.7,32.2c9.1,3.9,19.2,6.1,29.8,6.1
		c10.4,0,20.3-2.1,29.3-5.9c3.8-9,5.9-18.9,5.9-29.3c0-10.6-2.2-20.6-6.1-29.8C235.4,185.2,224.3,194.4,211.5,200.6z"/>
	<g id="XMLID_72_">
		<g id="XMLID_14_">
			<path id="XMLID_1152_" class="st1" d="M383.3,92.8c-12.6,0-23.2,1.5-30.6,2.9c-2.4,0.5-3.5,1.8-3.5,3.8v11.7
				c0,2.6,1.5,3.1,3.3,3.1c0.2,0,0.5,0,0.9,0c6-0.7,18.1-1.5,29.8-1.5c10.8,0,16.1,2.9,16.1,14.8v8.1h-11.5
				c-31.8,0-44.6,10.8-44.6,31.7v0.7c0,24.7,16.5,30.6,31.7,30.6c8.8,0,17.4-2.9,25.8-8.1v2.9c0,2,1.6,3.7,3.7,3.7H420
				c2,0,3.7-1.6,3.7-3.7v-65.7C423.5,104.4,409.3,92.8,383.3,92.8z M399.4,174.4c-5.3,2.9-12.1,5.1-18.7,5.1
				c-9.1,0-13.2-2.4-13.2-11.3v-0.7c0-10.2,3.7-15.6,20.3-15.6h11.5v22.5H399.4z"/>
			<g id="XMLID_1148_">
				<path id="XMLID_1149_" class="st1" d="M499.1,195.3c-4.2,1.1-12.4,2.4-23.6,2.4c-23.8,0-41.7-14.6-41.7-44.5v-17
					c0-29.8,17.9-44.5,41.7-44.5c11.2,0,19.4,1.3,23.6,2.4c3.1,0.7,3.8,1.8,3.8,4.8v11.9c0,1.8-1.5,2.7-3.3,2.7c-0.2,0-0.4,0-0.5,0
					c-7.3-0.9-11.7-1.3-23.6-1.3c-8.6,0-17.6,4.9-17.6,24v17c0,19,9,24,17.6,24c11.9,0,16.3-0.4,23.6-1.3c0.2,0,0.4,0,0.5,0
					c1.8,0,3.3,0.9,3.3,2.7v11.9C502.9,193.4,502.2,194.5,499.1,195.3z"/>
			</g>
			<g id="XMLID_1144_">
				<path id="XMLID_1145_" class="st1" d="M596.3,197.3H574c-2,0-4.2-2-5.3-3.7L540,151.9v41.5c0,2-1.6,3.8-3.7,3.8h-16.8
					c-2,0-3.7-1.8-3.7-3.8V61.7c0-2,1.6-3.7,3.7-3.7h16.8c2,0,3.7,1.6,3.7,3.7V138l31.3-41.7c1.3-1.6,3.1-2.2,4.2-2.2H596
					c1.8,0,2.7,0.7,2.7,2c0,0.5-0.2,1.1-0.7,1.8l-36.8,45.2l37.1,50.5c0.4,0.5,0.5,0.9,0.5,1.5C598.8,196.2,597.7,197.3,596.3,197.3
					z"/>
			</g>
			<g id="XMLID_1140_">
				<path id="XMLID_1141_" class="st1" d="M631.2,197.3h-17c-2,0-3.7-1.8-3.7-3.8V61.7c0-2,1.6-3.7,3.7-3.7h17c2,0,3.5,1.6,3.5,3.7
					v131.7C634.7,195.5,633.2,197.3,631.2,197.3z"/>
			</g>
			<g id="XMLID_1133_">
				<path id="XMLID_1137_" class="st1" d="M673.6,80.4h-17.7c-2,0-3.8-1.6-3.8-3.7V60.6c0-2,1.8-3.7,3.8-3.7h17.7
					c2,0,3.7,1.6,3.7,3.7v16.1C677.3,78.7,675.7,80.4,673.6,80.4z"/>
				<path id="XMLID_1134_" class="st1" d="M673.1,197.3h-16.8c-2,0-3.7-1.8-3.7-3.8V97.8c0-2,1.6-3.7,3.7-3.7h16.8
					c2,0,3.7,1.6,3.7,3.7v95.7C676.8,195.5,675.1,197.3,673.1,197.3z"/>
			</g>
			<path id="XMLID_1125_" class="st1" d="M734.4,92.8c-28.7,0-43.7,19.4-43.7,45.6v14.8c0,26.2,15,45.6,43.7,45.6
				s43.7-19.4,43.7-45.6v-14.8C778.1,112.2,763.1,92.8,734.4,92.8z M754,153.2c0,15-6.8,24.7-19.6,24.7s-19.6-9.7-19.6-24.7v-14.8
				c0-15,6.8-24.7,19.6-24.7s19.6,9.7,19.6,24.7V153.2z"/>
		</g>
		<g id="XMLID_1034_">
			<path id="XMLID_80_" class="st2" d="M353.1,242.4v-14c0-0.4,0.4-0.7,1.2-0.7h0.2c0.8,0,1.2,0.2,1.2,0.7v14.1
				c0,1.3,0.5,2.5,1.6,3.3c1.1,0.9,2.4,1.3,4.1,1.3c1.6,0,3-0.4,4.1-1.3c1.1-0.9,1.6-2,1.6-3.3v-14.1c0-0.4,0.4-0.7,1.2-0.7h0.2
				c0.8,0,1.2,0.2,1.2,0.7v14c0,2.2-0.7,4-2.2,5.2s-3.5,1.9-6.2,1.9s-4.8-0.6-6.2-1.9C353.8,246.4,353.1,244.7,353.1,242.4z"/>
			<path id="XMLID_82_" class="st2" d="M374.2,248.7v-10.8c0-1.2-0.1-2.1-0.2-2.7c-0.1-0.7-0.2-1.1-0.2-1.2c0-0.2,0.2-0.4,0.6-0.5
				s0.7-0.2,0.9-0.2c0.2,0,0.4,0,0.4,0.1c0.1,0,0.2,0.1,0.2,0.2c0.1,0.1,0.1,0.2,0.2,0.3c0,0.1,0.1,0.2,0.1,0.4s0.1,0.3,0.1,0.4
				c0,0.1,0.1,0.2,0.1,0.4s0.1,0.3,0.1,0.4c1.4-1.5,2.9-2.3,4.6-2.3s3,0.4,3.9,1.3c0.9,0.9,1.3,2.1,1.3,3.6v10.6
				c0,0.4-0.4,0.7-1.2,0.7H385c-0.8,0-1.2-0.2-1.2-0.7v-10.4c0-0.9-0.3-1.7-0.8-2.2s-1.3-0.8-2.3-0.8c-1.5,0-2.8,0.7-3.9,2.1v11.2
				c0,0.4-0.4,0.7-1.2,0.7h-0.1C374.6,249.4,374.2,249.1,374.2,248.7z"/>
			<path id="XMLID_85_" class="st2" d="M391.8,229.4c-0.8,0-1.2-0.2-1.2-0.7v-1.8c0-0.4,0.4-0.7,1.2-0.7h0.4c0.8,0,1.2,0.2,1.2,0.7
				v1.8c0,0.5-0.4,0.7-1.2,0.7H391.8z M390.7,248.7v-14.8c0-0.4,0.4-0.7,1.2-0.7h0.1c0.8,0,1.2,0.2,1.2,0.7v14.8
				c0,0.4-0.4,0.7-1.2,0.7h-0.1C391.1,249.4,390.7,249.1,390.7,248.7z"/>
			<path id="XMLID_89_" class="st2" d="M398.6,248.7v-13.2h-1.2c-0.4,0-0.6-0.3-0.6-0.9v-0.4c0-0.6,0.2-0.9,0.6-0.9h1.2v-2.9
				c0-1.8,0.5-2.9,1.4-3.5c0.8-0.5,1.6-0.7,2.5-0.7c1.5,0,2.2,0.3,2.2,0.9c0,0.2-0.1,0.5-0.2,0.9s-0.3,0.6-0.5,0.6
				c0,0-0.2,0-0.4-0.1c-0.2-0.1-0.6-0.1-1-0.1s-0.8,0.1-1.1,0.4c-0.3,0.3-0.4,0.9-0.4,1.8v2.7h2.7c0.4,0,0.6,0.3,0.6,0.9v0.4
				c0,0.6-0.2,0.9-0.6,0.9h-2.7v13.2c0,0.4-0.4,0.7-1.2,0.7h-0.1C399,249.4,398.6,249.1,398.6,248.7z"/>
			<path id="XMLID_91_" class="st2" d="M405,233.7c0-0.3,0.4-0.5,1.3-0.5h0.2c0.7,0,1.1,0.2,1.2,0.5l4.2,11.1l4.1-11.1
				c0.1-0.3,0.6-0.5,1.4-0.5s1.2,0.2,1.2,0.5c0,0.1,0,0.2-0.1,0.4l-7.9,20.9c-0.2,0.4-0.6,0.6-1.4,0.6h-0.5c-0.7,0-1-0.2-1-0.5
				c0-0.1,0.9-2.3,2.7-6.7l-5.4-14.3C405,233.9,405,233.8,405,233.7z"/>
			<path id="XMLID_94_" class="st2" d="M422.3,229.4c-0.8,0-1.2-0.2-1.2-0.7v-1.8c0-0.4,0.4-0.7,1.2-0.7h0.4c0.8,0,1.2,0.2,1.2,0.7
				v1.8c0,0.5-0.4,0.7-1.2,0.7H422.3z M421.2,248.7v-14.8c0-0.4,0.4-0.7,1.2-0.7h0.1c0.8,0,1.2,0.2,1.2,0.7v14.8
				c0,0.4-0.4,0.7-1.2,0.7h-0.1C421.7,249.4,421.2,249.1,421.2,248.7z"/>
			<path id="XMLID_97_" class="st2" d="M428.5,248.7v-10.8c0-1.2-0.1-2.1-0.2-2.7c-0.1-0.7-0.2-1.1-0.2-1.2c0-0.2,0.2-0.4,0.6-0.5
				s0.7-0.2,0.9-0.2c0.2,0,0.4,0,0.4,0.1c0.1,0,0.2,0.1,0.2,0.2c0.1,0.1,0.1,0.2,0.2,0.3c0,0.1,0.1,0.2,0.1,0.4s0.1,0.3,0.1,0.4
				c0,0.1,0.1,0.2,0.1,0.4s0.1,0.3,0.1,0.4c1.4-1.5,2.9-2.3,4.6-2.3s3,0.4,3.9,1.3c0.9,0.9,1.3,2.1,1.3,3.6v10.6
				c0,0.4-0.4,0.7-1.2,0.7h-0.1c-0.8,0-1.2-0.2-1.2-0.7v-10.4c0-0.9-0.3-1.7-0.8-2.2s-1.3-0.8-2.3-0.8c-1.5,0-2.8,0.7-3.9,2.1v11.2
				c0,0.4-0.4,0.7-1.2,0.7h-0.1C428.9,249.4,428.5,249.1,428.5,248.7z"/>
			<path id="XMLID_99_" class="st2" d="M443.2,251.8c0-1.7,1.2-2.9,3.5-3.7c-1.3-0.6-2-1.4-2-2.6c0-1.2,0.8-2,2.3-2.5
				c-0.9-0.4-1.6-1-2.1-1.9c-0.5-0.8-0.7-1.7-0.7-2.7c0-1.5,0.5-2.8,1.6-3.8s2.6-1.5,4.5-1.5c0.7,0,1.4,0.1,2,0.2h5.3
				c0.4,0,0.6,0.3,0.6,0.9v0.4c0,0.6-0.2,0.9-0.6,0.9h-2.1c0.7,0.8,1,1.8,1,2.9c0,1.5-0.5,2.8-1.6,3.8s-2.6,1.5-4.5,1.5H450
				c-1.8,0.1-2.6,0.5-2.6,1.3c0,0.4,0.4,0.8,1.1,1s1.6,0.4,2.6,0.5s2,0.3,3,0.5s1.9,0.7,2.6,1.4s1.1,1.6,1.1,2.7
				c0,1.4-0.7,2.5-2,3.5c-1.4,0.9-3.2,1.4-5.5,1.4s-4.1-0.3-5.3-0.9C443.8,254.3,443.2,253.3,443.2,251.8z M445.8,251.5
				c0,1.4,1.5,2.1,4.6,2.1c1.4,0,2.5-0.2,3.3-0.7s1.3-1.1,1.3-1.7c0-0.6-0.2-1-0.7-1.2c-0.8-0.4-2.2-0.8-4.2-1
				c-0.5-0.1-1-0.2-1.3-0.2c-0.8,0.3-1.5,0.7-2.1,1.2C446.2,250.3,445.8,250.9,445.8,251.5z M446.9,238.4c0,2.1,1.2,3.1,3.5,3.1
				s3.5-1,3.5-3.1s-1.2-3.1-3.5-3.1C448.1,235.3,446.9,236.3,446.9,238.4z"/>
			<path id="XMLID_103_" class="st2" d="M467.7,248.4v-19.9c0-0.4,0.4-0.7,1.2-0.7h0.2c0.8,0,1.2,0.2,1.2,0.7V247h8.4
				c0.4,0,0.6,0.3,0.6,0.9v0.5c0,0.6-0.2,0.9-0.6,0.9h-10.2C468,249.3,467.7,249,467.7,248.4z"/>
			<path id="XMLID_105_" class="st2" d="M481.4,248.7v-19.9c0-0.6,0.3-0.9,0.9-0.9h6.2c1.6,0,3,0.3,4.4,1c0.8,0.4,1.4,1,1.8,1.9
				c0.4,0.8,0.7,1.8,0.7,3c0,1.1-0.2,2.1-0.5,2.9c-0.4,0.8-0.8,1.4-1.3,1.9c-0.5,0.4-1.1,0.8-1.7,1c-1,0.4-2,0.6-3,0.6h-4.8v8.5
				c0,0.4-0.4,0.7-1.2,0.7h-0.2C481.8,249.4,481.4,249.1,481.4,248.7z M484.1,237.8h4.8c0.8,0,1.5-0.2,2.3-0.7
				c0.4-0.3,0.7-0.7,1-1.2c0.3-0.6,0.4-1.2,0.4-2c0-1.4-0.4-2.3-1.2-2.9c-0.8-0.5-1.8-0.8-2.9-0.8h-4.4L484.1,237.8L484.1,237.8z"/>
			<path id="XMLID_140_" class="st2" d="M496,228.3c0-0.3,0.4-0.5,1.3-0.5h0.3c0.7,0,1.1,0.2,1.2,0.5l3.9,15.1
				c0.1,0.6,0.3,1.2,0.4,1.8c0.1,0.7,0.2,1,0.2,1l4.4-17.9c0.1-0.3,0.5-0.5,1.2-0.5h0.5c0.7,0,1.1,0.2,1.2,0.5l3.8,15.1l0.5,2.8
				l4.4-17.9c0.1-0.3,0.5-0.5,1.2-0.5h0.2c0.9,0,1.3,0.2,1.3,0.5c0,0,0,0.2-0.1,0.4l-5.3,20.2c-0.1,0.3-0.5,0.5-1.2,0.5h-1.3
				c-0.7,0-1.1-0.2-1.2-0.5l-3.3-12.5l-0.6-4l-0.6,4l-3.3,12.5c-0.1,0.3-0.5,0.5-1.2,0.5h-1.3c-0.7,0-1.1-0.2-1.2-0.5l-5.2-20.2
				C496,228.5,496,228.3,496,228.3z"/>
			<path id="XMLID_142_" class="st2" d="M522.2,248.8c0-0.1,0-0.2,0.1-0.4l7.3-20.2c0.1-0.3,0.5-0.5,1.2-0.5h0.9
				c0.7,0,1.1,0.2,1.2,0.5l7.3,20.2c0.1,0.1,0.1,0.3,0.1,0.4c0,0.3-0.4,0.5-1.3,0.5h-0.2c-0.7,0-1.1-0.2-1.2-0.5l-1.8-5h-9l-1.7,5
				c-0.1,0.3-0.5,0.5-1.2,0.5h-0.2C522.6,249.4,522.2,249.2,522.2,248.8z M527.5,241.5h7.3l-3.2-9.1l-0.4-1.8l-0.5,1.8L527.5,241.5z
				"/>
			<path id="XMLID_145_" class="st2" d="M549.2,248.7v-20.2c0-0.4,0.4-0.7,1.2-0.7h0.6c0.6,0,1,0.2,1.3,0.6l9.8,14.8l0.9,1.7v-16.4
				c0-0.4,0.4-0.7,1.2-0.7h0.2c0.8,0,1.2,0.2,1.2,0.7v20.2c0,0.4-0.4,0.7-1.2,0.7h-0.6c-0.5,0-0.9-0.1-1.1-0.4l-10.1-15.3l-0.8-1.6
				v16.6c0,0.4-0.4,0.7-1.2,0.7h-0.2C549.6,249.4,549.2,249.1,549.2,248.7z"/>
			<path id="XMLID_147_" class="st2" d="M571.2,247.5c-1.2-1.3-1.8-3.4-1.8-6.1c0-2.7,0.6-4.8,1.8-6.2s2.9-2.1,5.2-2.1
				c4.3,0,6.5,2.7,6.5,8c0,0.2-0.1,0.4-0.4,0.8c-0.2,0.3-0.5,0.5-0.6,0.5h-9.7c0.1,1.7,0.6,2.9,1.3,3.7c0.8,0.8,1.9,1.2,3.4,1.2
				c1.4,0,2.7-0.3,3.8-1c0.4-0.2,0.6-0.3,0.6-0.3c0.2,0,0.4,0.2,0.7,0.6c0.3,0.4,0.4,0.7,0.4,0.9c0,0.4-0.6,0.8-1.7,1.3
				c-1.1,0.5-2.4,0.7-3.8,0.7C574.3,249.5,572.5,248.8,571.2,247.5z M580.1,240.1c0-3.2-1.2-4.8-3.7-4.8c-2.6,0-4.1,1.6-4.3,4.8
				H580.1z"/>
			<path id="XMLID_150_" class="st2" d="M586.7,245.3v-9.8h-1.5c-0.4,0-0.6-0.3-0.6-0.9v-0.4c0-0.6,0.2-0.9,0.6-0.9h1.5l0.4-3.2
				c0-0.4,0.4-0.7,1-0.7h0.3c0.6,0,0.9,0.2,0.9,0.7v3.2h2.6c0.4,0,0.6,0.3,0.6,0.9v0.4c0,0.6-0.2,0.9-0.6,0.9h-2.6v9.5
				c0,1.5,0.6,2.3,1.7,2.3c0.3,0,0.6,0,0.9-0.1c0.2-0.1,0.4-0.1,0.4-0.1c0.2,0,0.3,0.2,0.5,0.6c0.1,0.4,0.2,0.7,0.2,0.9
				c0,0.6-0.7,0.9-2.2,0.9c-1,0-1.9-0.3-2.7-0.9C587.1,247.9,586.7,246.8,586.7,245.3z"/>
			<path id="XMLID_152_" class="st2" d="M594.1,233.7c0-0.3,0.4-0.5,1.3-0.5h0.3c0.7,0,1.1,0.2,1.2,0.5l3.2,12.2l3.2-12.2
				c0.1-0.3,0.5-0.5,1.2-0.5h0.3c0.7,0,1.1,0.2,1.2,0.5l3.2,12.2l3.2-12.2c0.1-0.3,0.5-0.5,1.4-0.5c0.8,0,1.3,0.2,1.3,0.5
				c0,0.1,0,0.2-0.1,0.4l-4.1,14.7c-0.1,0.3-0.5,0.5-1.2,0.5h-1c-0.7,0-1.1-0.2-1.2-0.5l-2.8-11.2l-2.9,11.2
				c-0.1,0.3-0.5,0.5-1.2,0.5h-1c-0.7,0-1.1-0.2-1.2-0.5l-4.1-14.8C594.1,233.9,594.1,233.8,594.1,233.7z"/>
			<path id="XMLID_154_" class="st2" d="M624.1,249.5c-2.3,0-4.1-0.7-5.3-2.1c-1.2-1.4-1.8-3.4-1.8-6.1c0-2.6,0.6-4.7,1.8-6.1
				c1.2-1.4,3-2.1,5.2-2.1c2.3,0,4,0.7,5.2,2.1c1.2,1.4,1.8,3.5,1.8,6.1c0,2.7-0.6,4.7-1.8,6.1C628.2,248.8,626.4,249.5,624.1,249.5
				z M620.8,245.8c0.7,1,1.8,1.5,3.3,1.5s2.6-0.5,3.3-1.5s1.1-2.5,1.1-4.5s-0.4-3.6-1.1-4.5c-0.7-1-1.8-1.5-3.3-1.5
				s-2.6,0.5-3.3,1.5s-1,2.5-1,4.5C619.7,243.3,620.1,244.9,620.8,245.8z"/>
			<path id="XMLID_157_" class="st2" d="M634.8,248.7v-10.8c0-1.2-0.1-2.1-0.2-2.7c-0.1-0.7-0.2-1.1-0.2-1.2c0-0.2,0.2-0.4,0.6-0.5
				c0.4-0.1,0.7-0.2,0.9-0.2s0.4,0,0.4,0.1c0.1,0,0.2,0.1,0.2,0.2c0.1,0.1,0.1,0.2,0.2,0.3c0,0.1,0.1,0.2,0.1,0.4s0.1,0.3,0.1,0.4
				c0,0.1,0.1,0.2,0.1,0.4s0.1,0.3,0.1,0.4c1.1-1.5,2.3-2.3,3.6-2.3c0.6,0,1,0.1,1.3,0.3s0.5,0.5,0.5,0.9c0,0.3-0.1,0.7-0.2,1.1
				c-0.1,0.4-0.3,0.6-0.4,0.6c-0.1,0-0.3-0.1-0.6-0.2c-0.3-0.1-0.7-0.2-1.1-0.2c-0.4,0-0.9,0.2-1.4,0.5s-0.8,0.6-1,0.9l-0.4,0.5
				v11.2c0,0.4-0.4,0.7-1.2,0.7H636C635.2,249.4,634.8,249.1,634.8,248.7z"/>
			<path id="XMLID_159_" class="st2" d="M645.4,248.7v-21.8c0-0.4,0.4-0.7,1.2-0.7h0.1c0.8,0,1.2,0.2,1.2,0.7v13.7h0.1l5.9-7
				c0.2-0.3,0.8-0.4,1.6-0.4h0.1c0.7,0,1.1,0.1,1.1,0.4c0,0.2-0.1,0.4-0.3,0.6l-5.7,6.7l6.3,7.5c0.2,0.2,0.3,0.4,0.3,0.5
				c0,0.3-0.5,0.4-1.3,0.4h-0.1c-0.9,0-1.4-0.1-1.7-0.4l-6.1-7.3H648v7c0,0.4-0.4,0.7-1.2,0.7h-0.1
				C645.8,249.4,645.4,249.1,645.4,248.7z"/>
			<path id="XMLID_161_" class="st2" d="M658.8,247.6c0-0.2,0.1-0.5,0.4-0.9c0.3-0.4,0.5-0.6,0.7-0.6c0,0,0.2,0.1,0.5,0.3
				s0.7,0.4,1.3,0.6c0.6,0.2,1.3,0.3,2.1,0.3s1.5-0.2,2-0.7s0.8-1.1,0.8-1.9c0-0.8-0.2-1.4-0.7-1.8c-0.5-0.4-1.4-0.9-2.7-1.2
				c-1.4-0.4-2.4-0.9-3-1.5s-0.9-1.5-0.9-2.7s0.5-2.3,1.4-3.1s2.2-1.2,3.7-1.2c1,0,2,0.1,2.8,0.4c0.8,0.3,1.2,0.6,1.2,0.9
				c0,0.3-0.1,0.6-0.4,1c-0.2,0.4-0.4,0.6-0.6,0.6c0,0-0.2-0.1-0.4-0.2c-0.7-0.4-1.5-0.6-2.3-0.6c-0.9,0-1.5,0.2-2,0.5
				c-0.5,0.4-0.7,0.8-0.7,1.4c0,0.6,0.2,1,0.5,1.3c0.4,0.3,1,0.6,1.8,0.9c1.9,0.6,3.2,1.2,3.9,1.9s1,1.8,1,3.2s-0.5,2.6-1.5,3.5
				s-2.2,1.4-3.6,1.4c-1.4,0-2.6-0.2-3.6-0.6C659.3,248.4,658.8,248,658.8,247.6z"/>
		</g>
	</g>
</g>
</svg>
