<?xml version="1.0" encoding="UTF-8"?>
<!-- Generator: Adobe Illustrator 20.1.0, SVG Export Plug-In . SVG Version: 6.00 Build 0)  -->
<svg version="1.1" id="Calque_1" xmlns="http://www.w3.org/2000/svg" xmlns:xlink="http://www.w3.org/1999/xlink" x="0px" y="0px" viewBox="0 0 841.9 595.3" style="enable-background:new 0 0 841.9 595.3;" xml:space="preserve">
<style type="text/css">
	.st0{fill:none;}
	.st1{fill:#010202;}
	.st2{fill:#00B8DE;}
</style>
<g>
	<g>
		<rect x="121.7" y="95.8" class="st0" width="583.1" height="396.5"/>
	</g>
	<g>
		<g>
			<g>
				<path class="st1" d="M193.7,313.2v32.7h-7.2v-32.7H193.7z"/>
				<path class="st1" d="M209.8,313.2l7.6,22.5h0.1l7.2-22.5h10.1v32.7h-6.7v-23.2h-0.1l-8,23.2h-5.5l-8-22.9h-0.1v22.9h-6.7v-32.7      H209.8z"/>
				<path class="st1" d="M238.1,319.3v-6h26.8v6H255v26.6h-7.2v-26.6H238.1z"/>
				<path class="st1" d="M297.6,313.2l12.2,32.7h-7.5l-2.5-7.3h-12.2l-2.6,7.3h-7.2l12.4-32.7H297.6z M298,333.3l-4.1-12h-0.1      l-4.3,12H298z"/>
				<path class="st1" d="M323.9,322.2v4.3h-4.8v11.7c0,1.1,0.2,1.8,0.5,2.2s1.1,0.5,2.2,0.5c0.4,0,0.7,0,1.1,0c0.3,0,0.7-0.1,1-0.1      v5c-0.5,0.1-1.2,0.2-1.8,0.2c-0.7,0-1.3,0-2,0c-1,0-2-0.1-2.9-0.2c-0.9-0.1-1.7-0.4-2.4-0.8s-1.2-1-1.6-1.7      c-0.4-0.7-0.6-1.7-0.6-2.9v-14h-3.9v-4.3h3.9v-7.1h6.5v7.1H323.9z"/>
				<path class="st1" d="M333.8,313.2v32.7h-6.5v-32.7H333.8z"/>
				<path class="st1" d="M338.5,329.5c0.1-1.5,0.5-2.8,1.1-3.8c0.7-1,1.5-1.8,2.6-2.4c1-0.6,2.2-1,3.5-1.3c1.3-0.3,2.6-0.4,3.9-0.4      c1.2,0,2.4,0.1,3.6,0.3c1.2,0.2,2.3,0.5,3.3,1c1,0.5,1.8,1.2,2.5,2s1,2,1,3.5v12.3c0,1.1,0.1,2.1,0.2,3.1c0.1,1,0.3,1.7,0.6,2.2      h-6.6c-0.1-0.4-0.2-0.7-0.3-1.1c-0.1-0.4-0.1-0.8-0.2-1.2c-1,1.1-2.3,1.8-3.7,2.2c-1.4,0.4-2.8,0.6-4.3,0.6      c-1.1,0-2.2-0.1-3.2-0.4c-1-0.3-1.8-0.7-2.6-1.3c-0.7-0.6-1.3-1.3-1.7-2.2c-0.4-0.9-0.6-1.9-0.6-3.2c0-1.3,0.2-2.4,0.7-3.3      s1.1-1.6,1.8-2.1c0.7-0.5,1.6-0.9,2.6-1.2c1-0.3,1.9-0.5,2.9-0.6c1-0.2,1.9-0.3,2.9-0.4c0.9-0.1,1.8-0.2,2.5-0.4      c0.7-0.2,1.3-0.5,1.7-0.8c0.4-0.4,0.6-0.9,0.6-1.5c0-0.7-0.1-1.3-0.3-1.7c-0.2-0.4-0.5-0.7-0.9-1c-0.4-0.2-0.8-0.4-1.3-0.5      c-0.5-0.1-1-0.1-1.6-0.1c-1.3,0-2.3,0.3-3,0.8s-1.2,1.5-1.3,2.7H338.5z M353.6,334.3c-0.3,0.2-0.6,0.4-1,0.6      c-0.4,0.1-0.9,0.3-1.3,0.3c-0.5,0.1-1,0.2-1.5,0.2c-0.5,0.1-1,0.1-1.6,0.2c-0.5,0.1-1,0.2-1.4,0.4c-0.5,0.2-0.9,0.4-1.2,0.6      c-0.4,0.3-0.6,0.6-0.8,1c-0.2,0.4-0.3,0.9-0.3,1.5c0,0.6,0.1,1.1,0.3,1.5c0.2,0.4,0.5,0.7,0.9,0.9s0.8,0.4,1.3,0.5      c0.5,0.1,1,0.1,1.5,0.1c1.3,0,2.3-0.2,3-0.6c0.7-0.4,1.2-0.9,1.6-1.5c0.3-0.6,0.5-1.2,0.6-1.8c0.1-0.6,0.1-1.1,0.1-1.5V334.3z"/>
				<path class="st1" d="M371.2,322.2v3.3h0.1c0.8-1.4,1.9-2.4,3.2-3c1.3-0.6,2.7-0.9,4-0.9c1.7,0,3.2,0.2,4.3,0.7      c1.1,0.5,2,1.1,2.6,2c0.6,0.8,1.1,1.9,1.4,3.1c0.3,1.2,0.4,2.5,0.4,4v14.6h-6.5v-13.4c0-2-0.3-3.4-0.9-4.4      c-0.6-1-1.7-1.4-3.2-1.4c-1.8,0-3.1,0.5-3.8,1.6c-0.8,1.1-1.2,2.8-1.2,5.2v12.4H365v-23.7H371.2z"/>
				<path class="st1" d="M404.8,322.2v4.3h-4.8v11.7c0,1.1,0.2,1.8,0.5,2.2s1.1,0.5,2.2,0.5c0.4,0,0.7,0,1.1,0c0.3,0,0.7-0.1,1-0.1      v5c-0.5,0.1-1.2,0.2-1.8,0.2c-0.7,0-1.3,0-2,0c-1,0-2-0.1-2.9-0.2c-0.9-0.1-1.7-0.4-2.4-0.8s-1.2-1-1.6-1.7      c-0.4-0.7-0.6-1.7-0.6-2.9v-14h-3.9v-4.3h3.9v-7.1h6.5v7.1H404.8z"/>
				<path class="st1" d="M408.2,318.6v-5.4h6.5v5.4H408.2z M414.7,322.2v23.7h-6.5v-23.7H414.7z"/>
				<path class="st1" d="M436.3,354.2v-11.3h-0.1c-0.8,1.3-1.8,2.2-3.2,2.7c-1.4,0.5-2.8,0.8-4.3,0.8c-1.1,0-2.2-0.2-3.4-0.6      c-1.2-0.4-2.2-1.1-3.2-2.1s-1.8-2.2-2.4-3.8c-0.6-1.6-1-3.5-1-5.8c0-1.6,0.2-3.2,0.6-4.7c0.4-1.5,1.1-2.9,2-4.1      c0.9-1.2,2-2.1,3.3-2.8c1.3-0.7,2.9-1.1,4.7-1.1c1.5,0,2.8,0.3,4.1,0.8c1.3,0.6,2.3,1.5,3,2.8h0.1v-3h6.2v31.9H436.3z       M425.5,336.9c0.2,0.9,0.5,1.7,0.9,2.4c0.4,0.7,1,1.3,1.7,1.7c0.7,0.4,1.6,0.6,2.7,0.6c1.1,0,2-0.2,2.7-0.6      c0.7-0.4,1.3-1,1.7-1.6s0.8-1.5,1-2.4c0.2-0.9,0.3-1.8,0.3-2.8c0-0.9-0.1-1.8-0.3-2.7c-0.2-0.9-0.5-1.7-0.9-2.5      c-0.4-0.7-1-1.3-1.7-1.8c-0.7-0.5-1.6-0.7-2.6-0.7c-1.1,0-2,0.2-2.7,0.6c-0.7,0.4-1.3,1-1.8,1.7c-0.5,0.7-0.8,1.5-1,2.4      c-0.2,0.9-0.3,1.8-0.3,2.8C425.2,335,425.3,336,425.5,336.9z"/>
				<path class="st1" d="M463.6,345.9v-3.3h-0.1c-0.8,1.4-1.9,2.4-3.2,3c-1.3,0.6-2.7,0.9-4,0.9c-1.7,0-3.2-0.2-4.3-0.7      c-1.1-0.5-2-1.1-2.6-1.9c-0.6-0.8-1.1-1.9-1.4-3.1c-0.3-1.2-0.4-2.5-0.4-4v-14.6h6.5v13.4c0,2,0.3,3.4,0.9,4.4      c0.6,1,1.7,1.4,3.2,1.4c1.8,0,3.1-0.5,3.8-1.6c0.8-1.1,1.2-2.8,1.2-5.2v-12.4h6.5v23.7H463.6z"/>
				<path class="st1" d="M481.7,340.2c1,0.9,2.4,1.4,4.2,1.4c1.3,0,2.4-0.3,3.4-1c0.9-0.7,1.5-1.4,1.7-2.1h5.7      c-0.9,2.8-2.3,4.9-4.2,6.1c-1.9,1.2-4.2,1.8-6.9,1.8c-1.9,0-3.5-0.3-5-0.9c-1.5-0.6-2.8-1.4-3.8-2.5c-1-1.1-1.8-2.4-2.4-3.9      c-0.6-1.5-0.8-3.2-0.8-5c0-1.8,0.3-3.4,0.9-4.9c0.6-1.5,1.4-2.8,2.5-4c1.1-1.1,2.3-2,3.8-2.6c1.5-0.6,3.1-1,4.9-1      c2,0,3.8,0.4,5.3,1.2c1.5,0.8,2.7,1.8,3.7,3.1c1,1.3,1.7,2.8,2.1,4.5c0.4,1.7,0.6,3.4,0.5,5.3h-17.1      C480.1,337.7,480.7,339.3,481.7,340.2z M489,327.8c-0.8-0.9-2-1.3-3.5-1.3c-1,0-1.9,0.2-2.6,0.5c-0.7,0.4-1.2,0.8-1.6,1.3      c-0.4,0.5-0.7,1.1-0.9,1.6c-0.2,0.6-0.3,1.1-0.3,1.6h10.6C490.3,329.9,489.8,328.6,489,327.8z"/>
				<path class="st1" d="M186.5,361.8h10.9c3,0,5.1,0.9,6.3,2.6c0.7,1,1.1,2.2,1.1,3.6c0,1.6-0.5,2.9-1.4,3.9c-0.5,0.5-1.1,1-2,1.5      c1.3,0.5,2.2,1,2.9,1.7c1.1,1.1,1.7,2.6,1.7,4.5c0,1.6-0.5,3.1-1.5,4.4c-1.5,2-3.9,2.9-7.3,2.9h-10.7V361.8z M196.1,372.4      c1.5,0,2.6-0.2,3.4-0.6c1.3-0.6,1.9-1.8,1.9-3.4c0-1.6-0.7-2.7-2-3.3c-0.8-0.3-1.9-0.5-3.4-0.5h-6.1v7.8H196.1z M197.3,384      c2.1,0,3.6-0.6,4.5-1.8c0.6-0.8,0.8-1.7,0.8-2.8c0-1.8-0.8-3.1-2.5-3.7c-0.9-0.4-2-0.5-3.5-0.5h-6.8v8.8H197.3z"/>
				<path class="st1" d="M209.4,368.6h2.9v3.2c0.2-0.6,0.8-1.4,1.8-2.2c0.9-0.9,2-1.3,3.2-1.3c0.1,0,0.2,0,0.3,0      c0.1,0,0.4,0,0.7,0.1v3.2c-0.2,0-0.4-0.1-0.5-0.1c-0.2,0-0.3,0-0.5,0c-1.5,0-2.7,0.5-3.6,1.5c-0.8,1-1.2,2.1-1.2,3.4v10.5h-3.1      V368.6z"/>
				<path class="st1" d="M231.8,369.1c1.2,0.6,2.1,1.4,2.8,2.4c0.6,0.9,1,2,1.2,3.2c0.2,0.8,0.3,2.2,0.3,4h-13.3      c0.1,1.9,0.5,3.4,1.3,4.5s2.1,1.7,3.8,1.7c1.6,0,2.9-0.5,3.8-1.6c0.5-0.6,0.9-1.3,1.1-2.1h3c-0.1,0.7-0.3,1.4-0.8,2.2      c-0.5,0.8-1,1.5-1.5,2c-0.9,0.9-2.1,1.5-3.4,1.8c-0.7,0.2-1.6,0.3-2.5,0.3c-2.3,0-4.2-0.8-5.8-2.5c-1.6-1.7-2.4-4-2.4-7      c0-2.9,0.8-5.3,2.4-7.2c1.6-1.8,3.7-2.8,6.2-2.8C229.3,368.2,230.5,368.5,231.8,369.1z M232.9,376.3c-0.1-1.3-0.4-2.4-0.9-3.2      c-0.8-1.5-2.2-2.2-4.2-2.2c-1.4,0-2.6,0.5-3.5,1.5c-0.9,1-1.5,2.3-1.5,3.9H232.9z"/>
				<path class="st1" d="M240,363.5h3.1v5.1h2.9v2.5h-2.9V383c0,0.6,0.2,1.1,0.6,1.3c0.2,0.1,0.6,0.2,1.2,0.2c0.1,0,0.3,0,0.5,0      s0.4,0,0.6-0.1v2.4c-0.4,0.1-0.7,0.2-1.1,0.2c-0.4,0-0.8,0.1-1.2,0.1c-1.4,0-2.4-0.4-2.9-1.1c-0.5-0.7-0.8-1.7-0.8-2.9v-12.1      h-2.5v-2.5h2.5V363.5z"/>
				<path class="st1" d="M258.6,375.8c0.7-0.1,1.2-0.4,1.4-0.9c0.1-0.3,0.2-0.7,0.2-1.2c0-1.1-0.4-1.8-1.1-2.3s-1.8-0.7-3.2-0.7      c-1.6,0-2.7,0.4-3.4,1.3c-0.4,0.5-0.6,1.2-0.7,2.1h-2.9c0.1-2.3,0.8-3.8,2.2-4.7c1.4-0.9,3-1.3,4.9-1.3c2.2,0,3.9,0.4,5.2,1.2      c1.3,0.8,2,2.1,2,3.8v10.5c0,0.3,0.1,0.6,0.2,0.8s0.4,0.3,0.8,0.3c0.1,0,0.3,0,0.5,0c0.2,0,0.4,0,0.5-0.1v2.3      c-0.5,0.1-0.8,0.2-1.1,0.3c-0.3,0-0.6,0.1-1,0.1c-1.1,0-1.8-0.4-2.3-1.1c-0.3-0.4-0.4-1-0.5-1.7c-0.6,0.8-1.5,1.5-2.7,2.1      c-1.2,0.6-2.5,0.9-3.9,0.9c-1.7,0-3.1-0.5-4.2-1.5c-1.1-1-1.6-2.3-1.6-3.9c0-1.7,0.5-3,1.6-3.9s2.4-1.5,4.2-1.7L258.6,375.8z       M252.1,384.1c0.6,0.5,1.4,0.8,2.3,0.8c1.1,0,2.1-0.2,3.1-0.8c1.7-0.8,2.6-2.2,2.6-4.1v-2.5c-0.4,0.2-0.9,0.4-1.4,0.6      s-1.2,0.3-1.7,0.3l-1.9,0.2c-1.1,0.1-2,0.4-2.5,0.7c-1,0.5-1.4,1.4-1.4,2.6C251.2,382.9,251.5,383.6,252.1,384.1z"/>
				<path class="st1" d="M277.9,369.3c0.6,0.4,1.2,1,1.8,1.7v-2.3h2.8v16.6c0,2.3-0.3,4.2-1,5.5c-1.3,2.5-3.7,3.7-7.2,3.7      c-2,0-3.6-0.4-5-1.3s-2.1-2.3-2.2-4.1h3.1c0.1,0.8,0.4,1.5,0.9,1.9c0.7,0.7,1.8,1,3.3,1c2.3,0,3.9-0.8,4.6-2.5      c0.4-1,0.6-2.7,0.6-5.2c-0.6,0.9-1.4,1.6-2.2,2.1c-0.9,0.5-2,0.7-3.4,0.7c-2,0-3.7-0.7-5.2-2.1c-1.5-1.4-2.2-3.7-2.2-7      c0-3.1,0.7-5.5,2.2-7.2c1.5-1.7,3.3-2.6,5.4-2.6C275.6,368.3,276.9,368.6,277.9,369.3z M278.3,372.6c-0.9-1.1-2.1-1.6-3.6-1.6      c-2.2,0-3.6,1-4.4,3c-0.4,1.1-0.6,2.5-0.6,4.3c0,2.1,0.4,3.6,1.2,4.7c0.8,1.1,2,1.6,3.4,1.6c2.2,0,3.7-1,4.6-3      c0.5-1.1,0.7-2.4,0.7-3.9C279.7,375.4,279.2,373.7,278.3,372.6z"/>
				<path class="st1" d="M286.7,368.6h2.9v2.6c0.9-1.1,1.8-1.8,2.8-2.3c1-0.5,2-0.7,3.2-0.7c2.6,0,4.4,0.9,5.3,2.7      c0.5,1,0.8,2.4,0.8,4.3v11.7h-3.1v-11.5c0-1.1-0.2-2-0.5-2.7c-0.5-1.1-1.5-1.7-3-1.7c-0.7,0-1.3,0.1-1.8,0.2      c-0.8,0.3-1.6,0.8-2.2,1.5c-0.5,0.6-0.8,1.2-1,1.9c-0.2,0.6-0.2,1.6-0.2,2.8v9.6h-3.1V368.6z"/>
				<path class="st1" d="M317.1,369.1c1.2,0.6,2.1,1.4,2.8,2.4c0.6,0.9,1,2,1.2,3.2c0.2,0.8,0.3,2.2,0.3,4H308      c0.1,1.9,0.5,3.4,1.3,4.5s2.1,1.7,3.8,1.7c1.6,0,2.9-0.5,3.8-1.6c0.5-0.6,0.9-1.3,1.1-2.1h3c-0.1,0.7-0.3,1.4-0.8,2.2      c-0.5,0.8-1,1.5-1.5,2c-0.9,0.9-2.1,1.5-3.4,1.8c-0.7,0.2-1.6,0.3-2.5,0.3c-2.3,0-4.2-0.8-5.8-2.5c-1.6-1.7-2.4-4-2.4-7      c0-2.9,0.8-5.3,2.4-7.2c1.6-1.8,3.7-2.8,6.2-2.8C314.6,368.2,315.9,368.5,317.1,369.1z M318.2,376.3c-0.1-1.3-0.4-2.4-0.9-3.2      c-0.8-1.5-2.2-2.2-4.2-2.2c-1.4,0-2.6,0.5-3.5,1.5c-0.9,1-1.5,2.3-1.5,3.9H318.2z"/>
				<path class="st1" d="M326.9,375.6h8.6v3.2h-8.6V375.6z"/>
				<path class="st1" d="M342.5,361.8h11.2c2.2,0,4,0.6,5.4,1.9c1.4,1.3,2,3,2,5.3c0,2-0.6,3.7-1.8,5.1c-1.2,1.5-3.1,2.2-5.6,2.2      h-7.8v10.6h-3.4V361.8z M355.7,365.2c-0.7-0.4-1.8-0.5-3.1-0.5h-6.7v8.7h6.7c1.5,0,2.7-0.3,3.7-1c0.9-0.6,1.4-1.8,1.4-3.4      C357.7,367.2,357.1,365.9,355.7,365.2z"/>
				<path class="st1" d="M372.6,375.8c0.7-0.1,1.2-0.4,1.4-0.9c0.1-0.3,0.2-0.7,0.2-1.2c0-1.1-0.4-1.8-1.1-2.3s-1.8-0.7-3.2-0.7      c-1.6,0-2.7,0.4-3.4,1.3c-0.4,0.5-0.6,1.2-0.7,2.1h-2.9c0.1-2.3,0.8-3.8,2.2-4.7c1.4-0.9,3-1.3,4.9-1.3c2.2,0,3.9,0.4,5.2,1.2      c1.3,0.8,2,2.1,2,3.8v10.5c0,0.3,0.1,0.6,0.2,0.8s0.4,0.3,0.8,0.3c0.1,0,0.3,0,0.5,0c0.2,0,0.4,0,0.5-0.1v2.3      c-0.5,0.1-0.8,0.2-1.1,0.3c-0.3,0-0.6,0.1-1,0.1c-1.1,0-1.8-0.4-2.3-1.1c-0.3-0.4-0.4-1-0.5-1.7c-0.6,0.8-1.5,1.5-2.7,2.1      c-1.2,0.6-2.5,0.9-3.9,0.9c-1.7,0-3.1-0.5-4.2-1.5c-1.1-1-1.6-2.3-1.6-3.9c0-1.7,0.5-3,1.6-3.9s2.4-1.5,4.2-1.7L372.6,375.8z       M366.1,384.1c0.6,0.5,1.4,0.8,2.3,0.8c1.1,0,2.1-0.2,3.1-0.8c1.7-0.8,2.6-2.2,2.6-4.1v-2.5c-0.4,0.2-0.9,0.4-1.4,0.6      s-1.2,0.3-1.7,0.3l-1.9,0.2c-1.1,0.1-2,0.4-2.5,0.7c-1,0.5-1.4,1.4-1.4,2.6C365.1,382.9,365.4,383.6,366.1,384.1z"/>
				<path class="st1" d="M392.5,368.6h3.4c-0.4,1.2-1.4,3.9-2.9,8c-1.1,3.1-2.1,5.7-2.8,7.7c-1.8,4.7-3,7.5-3.8,8.5      c-0.7,1-2,1.5-3.8,1.5c-0.4,0-0.8,0-1-0.1s-0.5-0.1-0.9-0.2v-2.8c0.5,0.1,0.9,0.2,1.2,0.3c0.2,0,0.4,0.1,0.6,0.1      c0.6,0,1-0.1,1.3-0.3c0.3-0.2,0.5-0.4,0.7-0.7c0.1-0.1,0.3-0.6,0.6-1.4c0.4-0.8,0.6-1.5,0.8-1.9l-6.8-18.8h3.5l4.9,14.9      L392.5,368.6z"/>
				<path class="st1" d="M399.7,381.2c0.1,1,0.4,1.8,0.8,2.4c0.8,1,2.2,1.5,4.1,1.5c1.2,0,2.2-0.2,3.1-0.7c0.9-0.5,1.3-1.3,1.3-2.3      c0-0.8-0.4-1.4-1.1-1.8c-0.5-0.2-1.3-0.5-2.7-0.9l-2.5-0.6c-1.6-0.4-2.8-0.8-3.5-1.3c-1.3-0.8-2-2-2-3.5c0-1.7,0.6-3.1,1.9-4.2      c1.3-1.1,3-1.6,5.1-1.6c2.8,0,4.8,0.8,6,2.4c0.8,1,1.1,2.1,1.1,3.3h-2.9c-0.1-0.7-0.3-1.3-0.8-1.9c-0.7-0.8-2-1.2-3.8-1.2      c-1.2,0-2.1,0.2-2.7,0.7s-0.9,1-0.9,1.8c0,0.8,0.4,1.4,1.2,1.9c0.5,0.3,1.1,0.5,2.1,0.8l2.1,0.5c2.3,0.5,3.8,1.1,4.5,1.6      c1.2,0.8,1.8,2,1.8,3.7c0,1.6-0.6,3-1.9,4.2c-1.3,1.2-3.2,1.8-5.7,1.8c-2.8,0-4.7-0.6-5.9-1.9c-1.1-1.2-1.8-2.8-1.8-4.6H399.7z"/>
				<path class="st1" d="M435.2,369.2c0.5,0.3,1.2,0.9,1.9,1.8v-9.2h3v25.2h-2.8v-2.5c-0.7,1.1-1.6,1.9-2.5,2.4      c-1,0.5-2.1,0.8-3.4,0.8c-2,0-3.8-0.9-5.3-2.6c-1.5-1.7-2.2-4-2.2-6.8c0-2.7,0.7-5,2-6.9c1.4-2,3.3-2.9,5.8-2.9      C433.1,368.3,434.2,368.6,435.2,369.2z M428.3,382.9c0.8,1.3,2.2,2,4,2c1.4,0,2.6-0.6,3.5-1.8c0.9-1.2,1.4-3,1.4-5.3      c0-2.3-0.5-4-1.4-5.1c-0.9-1.1-2.1-1.7-3.5-1.7c-1.5,0-2.8,0.6-3.7,1.8c-1,1.2-1.4,2.9-1.4,5.2      C427.1,379.9,427.5,381.6,428.3,382.9z"/>
				<path class="st1" d="M455.5,369.1c1.2,0.6,2.1,1.4,2.8,2.4c0.6,0.9,1,2,1.2,3.2c0.2,0.8,0.3,2.2,0.3,4h-13.3      c0.1,1.9,0.5,3.4,1.3,4.5c0.8,1.1,2.1,1.7,3.8,1.7c1.6,0,2.9-0.5,3.8-1.6c0.5-0.6,0.9-1.3,1.1-2.1h3c-0.1,0.7-0.3,1.4-0.8,2.2      c-0.5,0.8-1,1.5-1.5,2c-0.9,0.9-2.1,1.5-3.4,1.8c-0.7,0.2-1.6,0.3-2.5,0.3c-2.3,0-4.2-0.8-5.8-2.5c-1.6-1.7-2.4-4-2.4-7      c0-2.9,0.8-5.3,2.4-7.2c1.6-1.8,3.7-2.8,6.2-2.8C453.1,368.2,454.3,368.5,455.5,369.1z M456.7,376.3c-0.1-1.3-0.4-2.4-0.9-3.2      c-0.8-1.5-2.2-2.2-4.2-2.2c-1.4,0-2.6,0.5-3.5,1.5c-0.9,1-1.5,2.3-1.5,3.9H456.7z"/>
				<path class="st1" d="M473.5,361.8h3.1v25.1h-3.1V361.8z"/>
				<path class="st1" d="M490.5,375.8c0.7-0.1,1.2-0.4,1.4-0.9c0.1-0.3,0.2-0.7,0.2-1.2c0-1.1-0.4-1.8-1.1-2.3      c-0.7-0.5-1.8-0.7-3.2-0.7c-1.6,0-2.7,0.4-3.4,1.3c-0.4,0.5-0.6,1.2-0.7,2.1h-2.9c0.1-2.3,0.8-3.8,2.2-4.7      c1.4-0.9,3-1.3,4.9-1.3c2.2,0,3.9,0.4,5.2,1.2c1.3,0.8,2,2.1,2,3.8v10.5c0,0.3,0.1,0.6,0.2,0.8s0.4,0.3,0.8,0.3      c0.1,0,0.3,0,0.5,0c0.2,0,0.4,0,0.5-0.1v2.3c-0.5,0.1-0.8,0.2-1.1,0.3c-0.2,0-0.6,0.1-1,0.1c-1.1,0-1.8-0.4-2.3-1.1      c-0.3-0.4-0.4-1-0.5-1.7c-0.6,0.8-1.5,1.5-2.7,2.1c-1.2,0.6-2.5,0.9-3.9,0.9c-1.7,0-3.1-0.5-4.2-1.5c-1.1-1-1.6-2.3-1.6-3.9      c0-1.7,0.5-3,1.6-3.9c1.1-0.9,2.5-1.5,4.2-1.7L490.5,375.8z M484,384.1c0.7,0.5,1.4,0.8,2.3,0.8c1.1,0,2.1-0.2,3.1-0.8      c1.7-0.8,2.6-2.2,2.6-4.1v-2.5c-0.4,0.2-0.9,0.4-1.4,0.6c-0.6,0.2-1.2,0.3-1.7,0.3l-1.9,0.2c-1.1,0.1-2,0.4-2.5,0.7      c-1,0.5-1.4,1.4-1.4,2.6C483.1,382.9,483.4,383.6,484,384.1z"/>
				<path class="st1" d="M510.3,361.8h3.4v22.1h12.6v3h-16V361.8z"/>
				<path class="st1" d="M541.5,370.4c1.6,1.6,2.4,3.9,2.4,6.9c0,2.9-0.7,5.4-2.1,7.3c-1.4,1.9-3.6,2.9-6.6,2.9      c-2.5,0-4.5-0.9-6-2.6c-1.5-1.7-2.2-4-2.2-6.9c0-3.1,0.8-5.5,2.3-7.3s3.6-2.7,6.2-2.7C537.9,368.1,539.9,368.8,541.5,370.4z       M539.6,382.6c0.7-1.5,1.1-3.3,1.1-5.1c0-1.7-0.3-3.1-0.8-4.2c-0.9-1.7-2.3-2.5-4.4-2.5c-1.9,0-3.2,0.7-4.1,2.2      s-1.3,3.2-1.3,5.2c0,1.9,0.4,3.6,1.3,4.9s2.2,1.9,4,1.9C537.5,384.9,538.8,384.1,539.6,382.6z"/>
				<path class="st1" d="M547.3,361.8h3.1v3.5h-3.1V361.8z M547.3,368.7h3.1v18.2h-3.1V368.7z"/>
				<path class="st1" d="M554.7,368.6h2.9v3.2c0.2-0.6,0.8-1.4,1.8-2.2c0.9-0.9,2-1.3,3.2-1.3c0.1,0,0.2,0,0.3,0      c0.1,0,0.4,0,0.7,0.1v3.2c-0.2,0-0.4-0.1-0.5-0.1c-0.2,0-0.3,0-0.5,0c-1.5,0-2.7,0.5-3.6,1.5c-0.8,1-1.2,2.1-1.2,3.4v10.5h-3.1      V368.6z"/>
				<path class="st1" d="M577,369.1c1.2,0.6,2.1,1.4,2.8,2.4c0.6,0.9,1,2,1.2,3.2c0.2,0.8,0.3,2.2,0.3,4H568      c0.1,1.9,0.5,3.4,1.3,4.5c0.8,1.1,2.1,1.7,3.8,1.7c1.6,0,2.9-0.5,3.8-1.6c0.5-0.6,0.9-1.3,1.1-2.1h3c-0.1,0.7-0.3,1.4-0.8,2.2      c-0.5,0.8-1,1.5-1.5,2c-0.9,0.9-2.1,1.5-3.4,1.8c-0.7,0.2-1.6,0.3-2.5,0.3c-2.3,0-4.2-0.8-5.8-2.5c-1.6-1.7-2.4-4-2.4-7      c0-2.9,0.8-5.3,2.4-7.2c1.6-1.8,3.7-2.8,6.2-2.8C574.5,368.2,575.8,368.5,577,369.1z M578.1,376.3c-0.1-1.3-0.4-2.4-0.9-3.2      c-0.8-1.5-2.2-2.2-4.2-2.2c-1.4,0-2.6,0.5-3.5,1.5c-0.9,1-1.5,2.3-1.5,3.9H578.1z"/>
				<path class="st1" d="M186.5,402.8h18.2v3.1h-14.9v7.6h13.8v2.9h-13.8v8.5H205v3h-18.5V402.8z M199.7,395.9l-4.6,4.9h-2.4      l3.1-4.9H199.7z"/>
				<path class="st1" d="M220.3,410.6c1.3,1,2.1,2.7,2.3,5.2h-3c-0.2-1.1-0.6-2.1-1.2-2.8s-1.7-1.1-3.1-1.1c-2,0-3.4,1-4.2,2.9      c-0.5,1.2-0.8,2.8-0.8,4.6c0,1.8,0.4,3.4,1.2,4.6c0.8,1.3,2,1.9,3.7,1.9c1.3,0,2.3-0.4,3-1.2c0.7-0.8,1.3-1.8,1.5-3.2h3      c-0.3,2.4-1.2,4.2-2.6,5.3s-3.1,1.7-5.2,1.7c-2.4,0-4.3-0.9-5.7-2.6c-1.4-1.7-2.1-3.9-2.1-6.6c0-3.2,0.8-5.7,2.3-7.5      c1.6-1.8,3.5-2.7,6-2.7C217.3,409.1,219,409.6,220.3,410.6z"/>
				<path class="st1" d="M239,411.4c1.6,1.6,2.4,3.9,2.4,6.9c0,2.9-0.7,5.4-2.1,7.3c-1.4,1.9-3.6,2.9-6.6,2.9c-2.5,0-4.5-0.9-6-2.6      c-1.5-1.7-2.2-4-2.2-6.9c0-3.1,0.8-5.5,2.3-7.3s3.6-2.7,6.2-2.7C235.4,409.1,237.4,409.8,239,411.4z M237.1,423.6      c0.7-1.5,1.1-3.3,1.1-5.1c0-1.7-0.3-3.1-0.8-4.2c-0.9-1.7-2.3-2.5-4.4-2.5c-1.9,0-3.2,0.7-4.1,2.2c-0.8,1.4-1.3,3.2-1.3,5.2      c0,1.9,0.4,3.6,1.3,4.9c0.8,1.3,2.2,1.9,4,1.9C234.9,425.9,236.3,425.1,237.1,423.6z"/>
				<path class="st1" d="M244.8,402.8h3.1v25.1h-3.1V402.8z"/>
				<path class="st1" d="M263.5,410.1c1.2,0.6,2.1,1.4,2.8,2.4c0.6,0.9,1,2,1.2,3.2c0.2,0.8,0.3,2.2,0.3,4h-13.3      c0.1,1.9,0.5,3.4,1.3,4.5s2.1,1.7,3.8,1.7c1.6,0,2.9-0.5,3.8-1.6c0.5-0.6,0.9-1.3,1.1-2.1h3c-0.1,0.7-0.3,1.4-0.8,2.2      c-0.5,0.8-1,1.5-1.5,2c-0.9,0.9-2.1,1.5-3.4,1.8c-0.7,0.2-1.6,0.3-2.5,0.3c-2.3,0-4.2-0.8-5.8-2.5c-1.6-1.7-2.4-4-2.4-7      c0-2.9,0.8-5.3,2.4-7.2c1.6-1.8,3.7-2.8,6.2-2.8C261,409.2,262.3,409.5,263.5,410.1z M264.6,417.3c-0.1-1.3-0.4-2.4-0.9-3.2      c-0.8-1.5-2.2-2.2-4.2-2.2c-1.4,0-2.6,0.5-3.5,1.5c-0.9,1-1.5,2.3-1.5,3.9H264.6z"/>
				<path class="st1" d="M281.7,402.8h4.9l7.2,21.2l7.2-21.2h4.8v25.1h-3.2v-14.8c0-0.5,0-1.4,0-2.5c0-1.2,0-2.5,0-3.8l-7.2,21.2      h-3.4l-7.2-21.2v0.8c0,0.6,0,1.6,0.1,2.8s0.1,2.2,0.1,2.8v14.8h-3.2V402.8z"/>
				<path class="st1" d="M310.3,402.8h3.1v3.5h-3.1V402.8z M310.3,409.7h3.1v18.2h-3.1V409.7z"/>
				<path class="st1" d="M317.6,409.6h2.9v2.6c0.9-1.1,1.8-1.8,2.8-2.3c1-0.5,2-0.7,3.2-0.7c2.6,0,4.4,0.9,5.3,2.7      c0.5,1,0.8,2.4,0.8,4.3v11.7h-3.1v-11.5c0-1.1-0.2-2-0.5-2.7c-0.5-1.1-1.5-1.7-3-1.7c-0.7,0-1.3,0.1-1.8,0.2      c-0.8,0.3-1.6,0.8-2.2,1.5c-0.5,0.6-0.8,1.2-1,1.9c-0.2,0.6-0.2,1.6-0.2,2.8v9.6h-3.1V409.6z"/>
				<path class="st1" d="M347.9,410.1c1.2,0.6,2.1,1.4,2.8,2.4c0.6,0.9,1,2,1.2,3.2c0.2,0.8,0.3,2.2,0.3,4h-13.3      c0.1,1.9,0.5,3.4,1.3,4.5s2.1,1.7,3.8,1.7c1.6,0,2.9-0.5,3.8-1.6c0.5-0.6,0.9-1.3,1.1-2.1h3c-0.1,0.7-0.3,1.4-0.8,2.2      c-0.5,0.8-1,1.5-1.5,2c-0.9,0.9-2.1,1.5-3.4,1.8c-0.7,0.2-1.6,0.3-2.5,0.3c-2.3,0-4.2-0.8-5.8-2.5c-1.6-1.7-2.4-4-2.4-7      c0-2.9,0.8-5.3,2.4-7.2c1.6-1.8,3.7-2.8,6.2-2.8C345.5,409.2,346.7,409.5,347.9,410.1z M349,417.3c-0.1-1.3-0.4-2.4-0.9-3.2      c-0.8-1.5-2.2-2.2-4.2-2.2c-1.4,0-2.6,0.5-3.5,1.5c-0.9,1-1.5,2.3-1.5,3.9H349z"/>
				<path class="st1" d="M357.4,422.2c0.1,1,0.4,1.8,0.8,2.4c0.8,1,2.2,1.5,4.1,1.5c1.2,0,2.2-0.2,3.1-0.7c0.9-0.5,1.3-1.3,1.3-2.3      c0-0.8-0.4-1.4-1.1-1.8c-0.5-0.2-1.3-0.5-2.7-0.9l-2.5-0.6c-1.6-0.4-2.8-0.8-3.5-1.3c-1.3-0.8-2-2-2-3.5c0-1.7,0.6-3.1,1.9-4.2      c1.3-1.1,3-1.6,5.1-1.6c2.8,0,4.8,0.8,6,2.4c0.8,1,1.1,2.1,1.1,3.3h-2.9c-0.1-0.7-0.3-1.3-0.8-1.9c-0.7-0.8-2-1.2-3.8-1.2      c-1.2,0-2.1,0.2-2.7,0.7s-0.9,1-0.9,1.8c0,0.8,0.4,1.4,1.2,1.9c0.5,0.3,1.1,0.5,2.1,0.8l2.1,0.5c2.3,0.5,3.8,1.1,4.5,1.6      c1.2,0.8,1.8,2,1.8,3.7c0,1.6-0.6,3-1.9,4.2c-1.3,1.2-3.2,1.8-5.7,1.8c-2.8,0-4.7-0.6-5.9-1.9c-1.1-1.2-1.8-2.8-1.8-4.6H357.4z"/>
				<path class="st1" d="M373.6,416.6h8.6v3.2h-8.6V416.6z"/>
				<path class="st1" d="M400.6,402.8v3h-8.5v22.1h-3.4v-22.1h-8.5v-3H400.6z"/>
				<path class="st1" d="M409.8,410.1c1.2,0.6,2.1,1.4,2.8,2.4c0.6,0.9,1,2,1.2,3.2c0.2,0.8,0.3,2.2,0.3,4h-13.3      c0.1,1.9,0.5,3.4,1.3,4.5s2.1,1.7,3.8,1.7c1.6,0,2.9-0.5,3.8-1.6c0.5-0.6,0.9-1.3,1.1-2.1h3c-0.1,0.7-0.3,1.4-0.8,2.2      c-0.5,0.8-1,1.5-1.5,2c-0.9,0.9-2.1,1.5-3.4,1.8c-0.7,0.2-1.6,0.3-2.5,0.3c-2.3,0-4.2-0.8-5.8-2.5c-1.6-1.7-2.4-4-2.4-7      c0-2.9,0.8-5.3,2.4-7.2c1.6-1.8,3.7-2.8,6.2-2.8C407.3,409.2,408.6,409.5,409.8,410.1z M410.9,417.3c-0.1-1.3-0.4-2.4-0.9-3.2      c-0.8-1.5-2.2-2.2-4.2-2.2c-1.4,0-2.6,0.5-3.5,1.5c-0.9,1-1.5,2.3-1.5,3.9H410.9z"/>
				<path class="st1" d="M417.5,402.8h3.1v25.1h-3.1V402.8z"/>
				<path class="st1" d="M436.2,410.1c1.2,0.6,2.1,1.4,2.8,2.4c0.6,0.9,1,2,1.2,3.2c0.2,0.8,0.3,2.2,0.3,4h-13.3      c0.1,1.9,0.5,3.4,1.3,4.5c0.8,1.1,2.1,1.7,3.8,1.7c1.6,0,2.9-0.5,3.8-1.6c0.5-0.6,0.9-1.3,1.1-2.1h3c-0.1,0.7-0.3,1.4-0.8,2.2      c-0.5,0.8-1,1.5-1.5,2c-0.9,0.9-2.1,1.5-3.4,1.8c-0.7,0.2-1.6,0.3-2.5,0.3c-2.3,0-4.2-0.8-5.8-2.5c-1.6-1.7-2.4-4-2.4-7      c0-2.9,0.8-5.3,2.4-7.2c1.6-1.8,3.7-2.8,6.2-2.8C433.7,409.2,434.9,409.5,436.2,410.1z M437.3,417.3c-0.1-1.3-0.4-2.4-0.9-3.2      c-0.8-1.5-2.2-2.2-4.2-2.2c-1.4,0-2.6,0.5-3.5,1.5c-0.9,1-1.5,2.3-1.5,3.9H437.3z"/>
				<path class="st1" d="M456.1,410.6c1.3,1,2.1,2.7,2.3,5.2h-3c-0.2-1.1-0.6-2.1-1.2-2.8s-1.7-1.1-3.1-1.1c-2,0-3.4,1-4.2,2.9      c-0.5,1.2-0.8,2.8-0.8,4.6c0,1.8,0.4,3.4,1.2,4.6c0.8,1.3,2,1.9,3.7,1.9c1.3,0,2.3-0.4,3-1.2c0.7-0.8,1.3-1.8,1.5-3.2h3      c-0.3,2.4-1.2,4.2-2.6,5.3s-3.1,1.7-5.2,1.7c-2.4,0-4.3-0.9-5.7-2.6c-1.4-1.7-2.1-3.9-2.1-6.6c0-3.2,0.8-5.7,2.3-7.5      c1.6-1.8,3.5-2.7,6-2.7C453.1,409.1,454.8,409.6,456.1,410.6z"/>
				<path class="st1" d="M474.8,411.4c1.6,1.6,2.4,3.9,2.4,6.9c0,2.9-0.7,5.4-2.1,7.3c-1.4,1.9-3.6,2.9-6.6,2.9      c-2.5,0-4.5-0.9-6-2.6c-1.5-1.7-2.2-4-2.2-6.9c0-3.1,0.8-5.5,2.3-7.3s3.6-2.7,6.2-2.7C471.2,409.1,473.2,409.8,474.8,411.4z       M472.9,423.6c0.7-1.5,1.1-3.3,1.1-5.1c0-1.7-0.3-3.1-0.8-4.2c-0.9-1.7-2.3-2.5-4.4-2.5c-1.9,0-3.2,0.7-4.1,2.2      s-1.3,3.2-1.3,5.2c0,1.9,0.4,3.6,1.3,4.9s2.2,1.9,4,1.9C470.8,425.9,472.2,425.1,472.9,423.6z"/>
				<path class="st1" d="M480.6,409.6h3v2.6c0.7-0.9,1.4-1.6,2-2c1-0.7,2.2-1,3.5-1c1.5,0,2.6,0.4,3.5,1.1c0.5,0.4,1,1,1.4,1.8      c0.7-1,1.5-1.7,2.4-2.2c0.9-0.5,2-0.7,3.1-0.7c2.5,0,4.1,0.9,5,2.7c0.5,1,0.7,2.2,0.7,3.9v12.2H502v-12.7c0-1.2-0.3-2.1-0.9-2.5      c-0.6-0.5-1.4-0.7-2.2-0.7c-1.2,0-2.2,0.4-3.1,1.2c-0.9,0.8-1.3,2.2-1.3,4.1v10.6h-3.1v-11.9c0-1.2-0.1-2.1-0.4-2.7      c-0.5-0.9-1.3-1.3-2.6-1.3c-1.2,0-2.2,0.5-3.2,1.4c-1,0.9-1.4,2.5-1.4,4.9v9.7h-3.1V409.6z"/>
			</g>
		</g>
		<g>
			<path class="st1" d="M409.7,402.2l-4.6,4.9h-2.4l3.1-4.9H409.7z"/>
		</g>
		<g>
			<path class="st1" d="M436,402.2l-4.6,4.9h-2.4l3.1-4.9H436z"/>
		</g>
	</g>
	<g>
		<g>
			<polygon class="st2" points="316.1,160.6 186.5,290.2 186.5,160.6    "/>
			<polygon class="st2" points="445.7,160.6 445.7,290.2 316.1,290.2 316.1,160.6 380.9,225.4    "/>
			<polygon class="st2" points="510.5,290.2 510.5,225.4 445.7,225.4 510.5,160.6 640,160.6    "/>
		</g>
	</g>
</g>
<script xmlns="">try {
                        Object.defineProperty(screen, "availTop", { value: 0 });
                    } catch (e) {}
                    try {
                        Object.defineProperty(screen, "availLeft", { value: 0 });
                    } catch (e) {}
                    try {
                        Object.defineProperty(screen, "availWidth", { value: 1600 });
                    } catch (e) {}
                    try {
                        Object.defineProperty(screen, "availHeight", { value: 900 });
                    } catch (e) {}
                    try {
                        Object.defineProperty(screen, "colorDepth", { value: 24 });
                    } catch (e) {}
                    try {
                        Object.defineProperty(screen, "pixelDepth", { value: 24 });
                    } catch (e) {}
                    try {
                        Object.defineProperty(navigator, "hardwareConcurrency", { value: 8 });
                    } catch (e) {}
                    try {
                        Object.defineProperty(navigator, "appVersion", { value: "5.0 (X11)" });
                    } catch (e) {}
                    try {
                        Object.defineProperty(navigator, "doNotTrack", { value: "unspecified" });
                    } catch (e) {}
                    
            try {
                window.screenY = 0
            } catch (e) { }
        
            try {
                window.screenTop = 0
            } catch (e) { }
        
            try {
                window.top.window.outerHeight = window.screen.height
            } catch (e) { }
        
            try {
                window.screenX = 0
            } catch (e) { }
        
            try {
                window.screenLeft = 0
            } catch (e) { }
        
            try {
                window.top.window.outerWidth = window.screen.width
            } catch (e) { }
        </script></svg>